# xmcd CD database file
#
# Track frame offsets:
#	150
#	15532
#	29495
#	44992
#	59402
#	74260
#	89242
#	103092
#	118542
#	134050
#	149857
#	162690
#	177772
#	191057
#	204550
#	217670
#	230275
#	242955
#	259167
#	275200
#	287850
#	299980
#	300652
#	302100
#	303455
#	304430
#	305632
#	306910
#	308307
#	309357
#	310815
#	311927
#	312937
#	314155
#	315172
#	316100
#	316910
#	317852
#	318685
#	319475
#	320330
#	321420
#	322300
#
# Disc length: 4308 seconds
#
# Revision: 0
# Processed by: cddbd v1.5.2PL0 Copyright (c) Steve Scherf et al.
# Submitted via: CDex 1.70beta2
#
DISCID=bc10d22b
DTITLE=ASsd - Jones Country Recurrent CHC-1159
DYEAR=0000
DGENRE=Country
TTITLE0=Martina McBride/Independence Day
TTITLE1=Mavericks/O What A Thrill
TTITLE2=Tanya Tucker/Hangin' In
TTITLE3=Randy Travis/Whisper My Name
TTITLE4=Wynonna/Girls With Guitars
TTITLE5=Rick Trevino/She Can't Say I Didn't Cry
TTITLE6=Clint Black/Half The Man
TTITLE7=George Strait/Man In Love With You
TTITLE8=Doug Stone/More Love
TTITLE9=Sawyer Brown/Hard To Say
TTITLE10=John Michael Montgomery/Be My Baby Tonight [single edit]
TTITLE11=John Berry/What's In It For Me [single version]
TTITLE12=Vince Gill/What The Cowgirls Do
TTITLE13=Dwight Yoakam/Pocket Of A Clown
TTITLE14=Joe Diffie/Third Rock From The Sun
TTITLE15=Trisha Yearwood/XXX's And OOO's (An All American Girl)
TTITLE16=Tim McGraw/Down On The Farm
TTITLE17=Kathy Mattea/Nobody's Gonna Rain On Our Parade
TTITLE18=Toby Keith/Who's That Man [radio edit]
TTITLE19=Pam Tillis/When You Walk In The Room
TTITLE20=Garth Brooks/Callin' Baton Rouge
TTITLE21=Production/Track 22
TTITLE22=Production/Track 23
TTITLE23=Production/Track 24
TTITLE24=Production/Track 25
TTITLE25=Production/Track 26
TTITLE26=Production/Track 27
TTITLE27=Production/Track 28
TTITLE28=Production/Track 29
TTITLE29=Production/Track 30
TTITLE30=Production/Track 31
TTITLE31=Production/Track 32
TTITLE32=Production/Track 33
TTITLE33=Production/Track 34
TTITLE34=Production/Track 35
TTITLE35=Production/Track 36
TTITLE36=Production/Track 37
TTITLE37=Production/Track 38
TTITLE38=Production/Track 39
TTITLE39=Production/Track 40
TTITLE40=Production/Track 41
TTITLE41=Production/Track 42
TTITLE42=Production/Track 43
EXTD=YEAR: 0000
EXTT0=
EXTT1=
EXTT2=
EXTT3=
EXTT4=
EXTT5=
EXTT6=
EXTT7=
EXTT8=
EXTT9=
EXTT10=
EXTT11=
EXTT12=
EXTT13=
EXTT14=
EXTT15=
EXTT16=
EXTT17=
EXTT18=
EXTT19=
EXTT20=
EXTT21=
EXTT22=
EXTT23=
EXTT24=
EXTT25=
EXTT26=
EXTT27=
EXTT28=
EXTT29=
EXTT30=
EXTT31=
EXTT32=
EXTT33=
EXTT34=
EXTT35=
EXTT36=
EXTT37=
EXTT38=
EXTT39=
EXTT40=
EXTT41=
EXTT42=
PLAYORDER=
